<?xml version="1.0" encoding="utf-8"?>
<!-- Generator: Adobe Illustrator 25.2.3, SVG Export Plug-In . SVG Version: 6.00 Build 0)  -->
<svg version="1.1" id="Layer_1" xmlns="http://www.w3.org/2000/svg" xmlns:xlink="http://www.w3.org/1999/xlink" x="0px" y="0px"
	 viewBox="0 0 163.7 35.9" style="enable-background:new 0 0 163.7 35.9;" xml:space="preserve">
<style type="text/css">
	.st0{fill:#FFFFFF;}
</style>
<g>
	<path class="st0" d="M25.9,8.9v26.6h-6.8v-5.4c-0.7,1.8-1.9,3.2-3.5,4.2c-1.6,1-3.5,1.5-5.6,1.5c-3.1,0-5.5-1-7.3-3
		C0.9,30.8,0,28,0,24.4V8.9h6.7v14.7c0,2.1,0.5,3.8,1.6,4.9c1.1,1.2,2.6,1.8,4.4,1.8c2,0,3.5-0.6,4.7-1.9c1.2-1.2,1.7-3,1.7-5.4V8.9
		H25.9z"/>
	<path class="st0" d="M51.6,11.6c1.8,2,2.7,4.8,2.7,8.5v15.5h-6.7V20.8c0-2.1-0.5-3.8-1.6-4.9c-1.1-1.2-2.6-1.8-4.5-1.8
		c-1.9,0-3.5,0.6-4.6,1.9c-1.2,1.2-1.7,3-1.7,5.4v14.1h-6.8V8.9h6.8v5.3c0.7-1.8,1.9-3.2,3.5-4.2c1.6-1,3.5-1.5,5.6-1.5
		C47.4,8.5,49.8,9.6,51.6,11.6z"/>
	<path class="st0" d="M77.3,11.4c2.3,1.9,3.7,4.4,4.3,7.6h-7.2c-0.3-1.4-0.9-2.5-2-3.3c-1-0.8-2.3-1.2-3.9-1.2c-1.8,0-3.3,0.7-4.5,2
		c-1.2,1.3-1.8,3.3-1.8,5.8c0,2.6,0.6,4.5,1.8,5.8c1.2,1.3,2.7,2,4.5,2c1.6,0,2.9-0.4,3.9-1.2c1-0.8,1.7-1.9,2-3.3h7.2
		c-0.6,3.2-2,5.7-4.3,7.6c-2.3,1.9-5.1,2.8-8.6,2.8c-2.6,0-4.9-0.6-6.9-1.7c-2-1.1-3.6-2.7-4.7-4.7c-1.1-2-1.7-4.5-1.7-7.2
		c0-2.8,0.6-5.2,1.7-7.3c1.1-2.1,2.7-3.6,4.7-4.7c2-1.1,4.3-1.6,6.9-1.6C72.1,8.6,75,9.5,77.3,11.4z"/>
	<path class="st0" d="M102,10.2c2.1,1.1,3.7,2.7,4.9,4.7s1.8,4.5,1.8,7.3c0,2.8-0.6,5.2-1.8,7.2c-1.2,2-2.8,3.6-4.9,4.7
		c-2.1,1.1-4.4,1.7-7,1.7c-2.6,0-4.9-0.6-7-1.7s-3.7-2.7-4.9-4.7c-1.2-2-1.8-4.5-1.8-7.2c0-2.8,0.6-5.2,1.8-7.3
		c1.2-2.1,2.8-3.6,4.9-4.7c2.1-1.1,4.4-1.6,7-1.6C97.6,8.6,100,9.1,102,10.2z M90.2,16.4c-1.3,1.3-2,3.3-2,5.8c0,2.5,0.7,4.5,2,5.8
		c1.3,1.3,2.9,2,4.8,2c1.9,0,3.5-0.7,4.8-2c1.3-1.3,2-3.3,2-5.8c0-2.5-0.7-4.5-2-5.8c-1.3-1.3-2.9-2-4.8-2
		C93.2,14.4,91.6,15.1,90.2,16.4z"/>
	<path class="st0" d="M126,10.2c1.6,1.1,2.7,2.5,3.4,4.3V0h6.7v35.5h-6.7V30c-0.7,1.8-1.8,3.2-3.4,4.3c-1.6,1.1-3.5,1.6-5.7,1.6
		s-4.3-0.5-6-1.6c-1.8-1.1-3.2-2.7-4.2-4.7c-1-2.1-1.5-4.5-1.5-7.3c0-2.8,0.5-5.2,1.5-7.3c1-2.1,2.4-3.6,4.2-4.7
		c1.8-1.1,3.8-1.6,6-1.6S124.4,9.1,126,10.2z M117.3,16.6c-1.3,1.4-1.9,3.3-1.9,5.7s0.6,4.3,1.9,5.6c1.3,1.4,3,2,5.1,2
		c2,0,3.7-0.7,5.1-2.1c1.3-1.4,2-3.3,2-5.6c0-2.4-0.7-4.2-2-5.6c-1.3-1.4-3-2.1-5.1-2.1C120.3,14.5,118.6,15.2,117.3,16.6z"/>
	<path class="st0" d="M163.5,23.5H144c0.1,2.4,0.7,4.1,1.9,5.2c1.2,1.1,2.7,1.7,4.4,1.7c1.6,0,2.9-0.4,3.9-1.2c1-0.8,1.7-1.8,2-3.1
		h7.2c-0.4,1.9-1.1,3.5-2.3,5c-1.2,1.5-2.6,2.6-4.4,3.5c-1.8,0.8-3.8,1.2-6,1.2c-2.6,0-4.9-0.6-6.9-1.7s-3.6-2.7-4.7-4.7
		c-1.1-2-1.7-4.5-1.7-7.2c0-2.8,0.6-5.2,1.7-7.3s2.7-3.6,4.7-4.7c2-1.1,4.3-1.6,6.9-1.6c2.6,0,4.9,0.5,6.9,1.6
		c2,1.1,3.5,2.6,4.6,4.5c1.1,1.9,1.6,4.1,1.6,6.5C163.7,21.9,163.6,22.7,163.5,23.5z M155.2,15.6c-1.2-1.1-2.7-1.7-4.5-1.7
		c-1.8,0-3.4,0.6-4.6,1.7c-1.2,1.1-1.9,2.8-2.1,4.9h12.9C157,18.4,156.4,16.7,155.2,15.6z"/>
</g>
</svg>
